{
  "accessors": [
    {
      "bufferView": 2,
      "componentType": 5126,
      "count": 5066,
      "max": [
        26.832447052001953,
        -49.323158264160156,
        -49.13419723510742
      ],
      "min": [
        20.974979400634766,
        -87.43695068359375,
        -60.72165298461914
      ],
      "type": "VEC3"
    },
    {
      "bufferView": 2,
      "byteOffset": 60792,
      "componentType": 5126,
      "count": 5066,
      "max": [
        0.9912962913513184,
        0.97044438123703,
        0.9840094447135925
      ],
      "min": [
        -0.9872303009033203,
        -0.9567993879318237,
        -0.9998188018798828
      ],
      "type": "VEC3"
    },
    {
      "bufferView": 3,
      "componentType": 5126,
      "count": 5066,
      "max": [
        1.0,
        1.0,
        1.0,
        1.0
      ],
      "min": [
        0.5333333611488342,
        0.0,
        0.08235294371843338,
        1.0
      ],
      "type": "VEC4"
    },
    {
      "bufferView": 1,
      "componentType": 5126,
      "count": 5066,
      "max": [
        0.0,
        0.0
      ],
      "min": [
        0.0,
        0.0
      ],
      "type": "VEC2"
    },
    {
      "bufferView": 0,
      "componentType": 5125,
      "count": 10734,
      "type": "SCALAR"
    },
    {
      "bufferView": 2,
      "byteOffset": 121584,
      "componentType": 5126,
      "count": 58636,
      "max": [
        100.04582214355469,
        86.77345275878906,
        69.419189453125
      ],
      "min": [
        -65.28836822509766,
        -107.5589599609375,
        -73.36285400390625
      ],
      "type": "VEC3"
    },
    {
      "bufferView": 2,
      "byteOffset": 825216,
      "componentType": 5126,
      "count": 58636,
      "max": [
        0.9998944401741028,
        0.9999114871025085,
        0.9999387264251709
      ],
      "min": [
        -0.999995768070221,
        -0.9999884366989136,
        -0.999947726726532
      ],
      "type": "VEC3"
    },
    {
      "bufferView": 3,
      "byteOffset": 81056,
      "componentType": 5126,
      "count": 58636,
      "max": [
        1.0,
        1.0,
        1.0,
        1.0
      ],
      "min": [
        1.0,
        1.0,
        1.0,
        1.0
      ],
      "type": "VEC4"
    },
    {
      "bufferView": 1,
      "byteOffset": 40528,
      "componentType": 5126,
      "count": 58636,
      "max": [
        0.9956920146942139,
        0.9999719858169556
      ],
      "min": [
        0.0,
        0.0
      ],
      "type": "VEC2"
    },
    {
      "bufferView": 0,
      "byteOffset": 42936,
      "componentType": 5125,
      "count": 292344,
      "type": "SCALAR"
    }
  ],
  "asset": {
    "extras": {
      "author": "cdrogers (https://sketchfab.com/cdrogers)",
      "license": "CC-BY-4.0 (http://creativecommons.org/licenses/by/4.0/)",
      "source": "https://sketchfab.com/3d-models/3d-object-demo-d0052ad0bfdc4a7ca8631aa2042cf503",
      "title": "3D Object Demo"
    },
    "generator": "Sketchfab-13.78.0",
    "version": "2.0"
  },
  "bufferViews": [
    {
      "buffer": 0,
      "byteLength": 1212312,
      "name": "floatBufferViews",
      "target": 34963
    },
    {
      "buffer": 0,
      "byteLength": 509616,
      "byteOffset": 1212312,
      "byteStride": 8,
      "name": "floatBufferViews",
      "target": 34962
    },
    {
      "buffer": 0,
      "byteLength": 1528848,
      "byteOffset": 1721928,
      "byteStride": 12,
      "name": "floatBufferViews",
      "target": 34962
    },
    {
      "buffer": 0,
      "byteLength": 1019232,
      "byteOffset": 3250776,
      "byteStride": 16,
      "name": "floatBufferViews",
      "target": 34962
    }
  ],
  "buffers": [
    {
      "byteLength": 4270008,
      "uri": "scene.bin"
    }
  ],
  "images": [
    {
      "uri": "textures/material_0_baseColor.jpeg"
    }
  ],
  "materials": [
    {
      "doubleSided": true,
      "name": "material_0",
      "pbrMetallicRoughness": {
        "baseColorTexture": {
          "index": 0
        },
        "metallicFactor": 0.0,
        "roughnessFactor": 0.6
      }
    },
    {
      "doubleSided": true,
      "name": "Mat_0",
      "pbrMetallicRoughness": {
        "baseColorTexture": {
          "index": 0
        },
        "metallicFactor": 0.0
      }
    }
  ],
  "meshes": [
    {
      "name": "Object_0",
      "primitives": [
        {
          "attributes": {
            "COLOR_0": 2,
            "NORMAL": 1,
            "POSITION": 0,
            "TEXCOORD_0": 3
          },
          "indices": 4,
          "material": 0,
          "mode": 4
        }
      ]
    },
    {
      "name": "Object_1",
      "primitives": [
        {
          "attributes": {
            "COLOR_0": 7,
            "NORMAL": 6,
            "POSITION": 5,
            "TEXCOORD_0": 8
          },
          "indices": 9,
          "material": 1,
          "mode": 4
        }
      ]
    }
  ],
  "nodes": [
    {
      "children": [
        1
      ],
      "matrix": [
        0.9995565414428711,
        -0.02977791801095009,
        -6.6120260402313865e-18,
        0.0,
        0.0,
        2.220446049250313e-16,
        -1.0,
        0.0,
        0.02977791801095009,
        0.9995565414428711,
        2.21946137344913e-16,
        0.0,
        0.0,
        0.0,
        0.0,
        1.0
      ],
      "name": "Sketchfab_model"
    },
    {
      "children": [
        2,
        3
      ],
      "name": "Skull3DB.obj.cleaner.materialmerger.gles"
    },
    {
      "mesh": 0,
      "name": "Object_2"
    },
    {
      "mesh": 1,
      "name": "Object_3"
    }
  ],
  "samplers": [
    {
      "magFilter": 9729,
      "minFilter": 9987,
      "wrapS": 10497,
      "wrapT": 10497
    }
  ],
  "scene": 0,
  "scenes": [
    {
      "name": "Sketchfab_Scene",
      "nodes": [
        0
      ]
    }
  ],
  "textures": [
    {
      "sampler": 0,
      "source": 0
    }
  ]
}
